# xmcd
# Track frame offsets:
# 150
# 11455
# 28655
# 42427
# 60685
# 73930
# 87272
# 100225
# 112702
# 125132
# 138347
# 149357
# 161300
#
# Disc length: 2337 seconds
# Revision: 0
# Processed by: cddbd v1.4PL0 Copyright (c) Steve Scherf et al.
# Submitted via: VisiTrax 2.9.5.180 - For more info visit www.synapsa.com
#
DISCID=b0091f0d
DTITLE=Andy Martin - Paint me blue
DYEAR=1996
DGENRE=
TTITLE0=Andy Martin - Paint me blue
TTITLE1=Andy Martin - You seein' someone else
TTITLE2=Andy Martin - The way I fell for you
TTITLE3=Andy Martin/Christine ALbert - You make me feel so young again
TTITLE4=Andy Martin - Neon jungle
TTITLE5=Andy Martin - I've been hearing this about you
TTITLE6=Andy Martin - Happy you
TTITLE7=Andy Martin - Still among the living
TTITLE8=Andy Martin - Since country started rockin'
TTITLE9=Andy Martin - Some days it takes all night
TTITLE10=Andy Martin - Give me the prairie
TTITLE11=Andy Martin - If you want to find love
TTITLE12=Andy Martin - I never did get over loosing you
EXTD=
EXTT0=
EXTT1=
EXTT2=
EXTT3=
EXTT4=
EXTT5=
EXTT6=
EXTT7=
EXTT8=
EXTT9=
EXTT10=
EXTT11=
EXTT12=
PLAYORDER=
